<?xml version="1.0" encoding="utf-8"?>
<!DOCTYPE svg PUBLIC "-//W3C//DTD SVG 1.1//EN" "http://www.w3.org/Graphics/SVG/1.1/DTD/svg11.dtd">
<svg version="1.1" id="Layer_1" xmlns="http://www.w3.org/2000/svg" xmlns:xlink="http://www.w3.org/1999/xlink" x="0px" y="0px"
	 width="1920" height="1080" viewBox="0 0 1920 1080" enable-background="new 0 0 1920 1080"
	 xml:space="preserve">
  <rect width="100%" height="100%" style="fill:rgb(255,255,255);stroke-width:0;" />
  <rect y="98%" width="50%" height="2%" style="fill:#830051; stroke-width:0;" />
  <rect y="98%" x="50%" width="37%" height="5%" style="fill:#006778 ;stroke-width:0;" />
  <rect y="98%" x="87%" width="13%" height="5%" style="fill:#7dc242;stroke-width:0;" />
<g transform="translate(1680,50) scale(0.35)">
	<path fill="#008292" stroke="#008292" stroke-width="0.5669" stroke-miterlimit="3.8637" d="M291.276,292.051
		c0-0.006-6.603-1.041-6.739-4.117C278.546,153.15,266.191,158.392,7.108,153.15c-4.867-0.099-6.739-7.114-6.739-7.114h290.907
		V292.051L291.276,292.051z"/>
	<path fill="#990D5E" stroke="#990D5E" stroke-width="0.5669" stroke-miterlimit="3.8637" d="M291.276,0.022
		c0,0.006,6.602,1.041,6.739,4.118c5.99,134.783,18.346,129.542,277.429,134.783c4.866,0.099,6.739,7.113,6.739,7.113H291.276V0.022
		L291.276,0.022z"/>
	<path fill-rule="evenodd" clip-rule="evenodd" fill="#808285" d="M205.991,353.791c2.915,9.059,10.171,16,21.129,16
		c11.423,0,14.619-6.391,17.474-6.391c0.272,0,0.476,0.135,0.612,0.135l0.544-0.271l-6.052-8.295l-0.68,0.408
		c0.068,0.34,0.136,0.68,0.136,1.02c0,3.332-5.848,6.732-11.491,6.596c-6.936-0.131-11.207-3.947-13.364-9.197L205.991,353.791
		L205.991,353.791z M302.177,353.791c0.05,0.33,0.075,0.676,0.075,1.041c0,5.645-4.079,8.16-9.995,8.16
		c-6.867,0-15.162-3.809-15.162-7.412c0-0.34,0-0.68,0.068-1.02l-0.748-0.408l-4.963,9.859l0.816,0.34
		c0.272-0.34,0.68-0.475,1.02-0.543c0.748-0.068,6.255,5.982,18.902,5.982c10.743,0,18.086-6.188,18.086-15.365
		c0-0.217-0.004-0.428-0.01-0.637L302.177,353.791L302.177,353.791z M338.168,353.791c2.914,9.059,10.171,16,21.129,16
		c11.423,0,14.619-6.391,17.475-6.391c0.271,0,0.476,0.135,0.612,0.135l0.544-0.271l-6.052-8.295l-0.68,0.408
		c0.067,0.34,0.136,0.68,0.136,1.02c0,3.332-5.848,6.732-11.491,6.596c-6.936-0.131-11.207-3.947-13.364-9.197L338.168,353.791
		L338.168,353.791z"/>
	<path fill-rule="evenodd" clip-rule="evenodd" fill="#808285" d="M214.301,353.791c-1.184-2.877-1.73-6.191-1.73-9.564
		c0-9.383,4.624-18.494,14.89-18.494c5.439,0,11.015,2.855,11.015,5.508c0,0.611,0.136,1.02,0,1.291l0.816,0.34l5.576-8.703
		l-0.68-0.408c-0.204,0.205-0.612,0.477-1.088,0.477c-0.612,0-2.108-1.293-4.624-2.652s-6.119-2.652-11.083-2.652
		c-14.822,0-22.846,12.24-22.846,25.43c0,3.258,0.489,6.455,1.444,9.426L214.301,353.791L214.301,353.791z M310.266,353.791
		c-0.615-19.352-29.432-9.818-29.432-20.717c0-4.215,2.516-7.342,10.199-7.342c5.983,0,13.055,2.584,13.055,6.188
		c0,0.271,0,0.543-0.068,0.748l0.884,0.406l4.76-10.266l-0.68-0.273c-0.544,0.613-1.156,0.748-1.563,0.748
		c-0.816,0-2.313-1.088-4.828-2.176s-6.051-2.176-11.151-2.176c-10.743,0-18.358,5.168-18.358,14.416
		c0,18.805,27.471,9.691,29.094,20.447L310.266,353.791L310.266,353.791z M346.478,353.791c-1.185-2.877-1.73-6.191-1.73-9.564
		c0-9.383,4.623-18.494,14.89-18.494c5.439,0,11.016,2.855,11.016,5.508c0,0.611,0.136,1.02,0,1.291l0.815,0.34l5.575-8.703
		l-0.68-0.408c-0.204,0.205-0.611,0.477-1.088,0.477c-0.611,0-2.107-1.293-4.623-2.652s-6.12-2.652-11.083-2.652
		c-14.822,0-22.846,12.24-22.846,25.43c0,3.258,0.488,6.455,1.444,9.426L346.478,353.791L346.478,353.791z"/>
</g>
</svg>
